<?xml version="1.0" encoding="UTF-8" standalone="no"?>
<!-- Generator: Adobe Illustrator 18.1.1, SVG Export Plug-In . SVG Version: 6.00 Build 0)  -->

<svg
   xmlns:dc="http://purl.org/dc/elements/1.1/"
   xmlns:cc="http://creativecommons.org/ns#"
   xmlns:rdf="http://www.w3.org/1999/02/22-rdf-syntax-ns#"
   xmlns:svg="http://www.w3.org/2000/svg"
   xmlns="http://www.w3.org/2000/svg"
   xmlns:sodipodi="http://sodipodi.sourceforge.net/DTD/sodipodi-0.dtd"
   xmlns:inkscape="http://www.inkscape.org/namespaces/inkscape"
   version="1.1"
   id="Layer_1"
   x="0px"
   y="0px"
   viewBox="0 0 103.2 103.2"
   enable-background="new 0 0 960 560"
   xml:space="preserve"
   inkscape:version="0.92.4 5da689c313, 2019-01-14"
   sodipodi:docname="micro.svg"
   width="103.2"
   height="103.2"><metadata
     id="metadata21"><rdf:RDF><cc:Work
         rdf:about=""><dc:format>image/svg+xml</dc:format><dc:type
           rdf:resource="http://purl.org/dc/dcmitype/StillImage" /><dc:title /></cc:Work></rdf:RDF></metadata><defs
     id="defs19" /><sodipodi:namedview
     pagecolor="#ffffff"
     bordercolor="#666666"
     borderopacity="1"
     objecttolerance="10"
     gridtolerance="10"
     guidetolerance="10"
     inkscape:pageopacity="0"
     inkscape:pageshadow="2"
     inkscape:window-width="1366"
     inkscape:window-height="739"
     id="namedview17"
     showgrid="false"
     fit-margin-top="0"
     fit-margin-left="0"
     fit-margin-right="0"
     fit-margin-bottom="0"
     inkscape:zoom="4.5666668"
     inkscape:cx="82.043757"
     inkscape:cy="36.642034"
     inkscape:window-x="0"
     inkscape:window-y="0"
     inkscape:window-maximized="1"
     inkscape:current-layer="Layer_1" /><g
     id="g3"
     transform="translate(-178,-172.8)" /><path
     d="M 51.6,0 C 23.1,0 0,23.1 0,51.6 c 0,28.5 23.1,51.6 51.6,51.6 28.5,0 51.6,-23.1 51.6,-51.6 C 103.2,23.1 80.1,0 51.6,0 Z m 24.5,58.6 c -0.5,2 -1.3,3.6 -2.4,4.9 -1,1.3 -2,2.1 -3.1,2.5 -1.1,0.4 -2.2,0.6 -3.4,0.6 -1.2,0 -2.2,-0.2 -3,-0.7 C 63.4,65.5 62.8,64.8 62.3,64 61.8,63.2 61.5,62.2 61.3,61.1 61.1,60 61,58.8 61,57.5 c 0,-0.5 0,-1 0.1,-1.7 0.1,-0.7 0.2,-1.6 0.3,-1.6 l -0.2,0 c -1.6,4 -3.8,6.9 -6.6,9.2 -2.8,2.3 -5.9,3.4 -9.3,3.4 -2.3,0 -4.2,-0.9 -5.5,-2.6 -1.4,-1.7 -2.1,-4.3 -2.1,-7.7 0,-0.5 0,-1 0.1,-1.6 0.1,-0.5 0.1,-0.7 0.2,-1.7 l -0.7,0 c -0.9,2 -1.7,4.8 -2.3,7.3 -0.6,2.5 -1.1,4.8 -1.4,6.9 -0.4,2.1 -0.6,4 -0.8,5.6 -0.2,1.6 -0.3,2.7 -0.4,3.3 0.1,0.5 0.2,1 0.3,1.6 0.2,0.6 0.3,1.2 0.5,1.7 0.2,0.5 0.3,1.1 0.4,1.6 0.1,0.5 0.2,0.9 0.2,1.2 0,1.4 -0.3,2.5 -0.9,3.2 -0.6,0.7 -1.3,1.1 -2,1.1 -0.9,0 -1.7,-0.3 -2.3,-0.8 -0.7,-0.6 -1,-1.5 -1,-2.7 0,-1.7 0.3,-3.9 0.9,-6.5 0.6,-2.6 1.5,-5.9 2.6,-9.8 0.6,-1.8 1.1,-3.6 1.7,-5.4 0.6,-1.8 1.1,-3.5 1.6,-5 0.5,-1.5 0.9,-2.9 1.3,-4.1 0.4,-1.2 0.6,-2.1 0.7,-2.8 0.1,-0.3 0.2,-1 0.3,-2 0.1,-1 0.2,-2.1 0.4,-3.4 0.2,-1.3 0.3,-2.7 0.5,-4.1 0.2,-1.5 0.4,-2.8 0.5,-4 0.2,-0.9 0.3,-1.9 0.5,-3 0.2,-1.1 0.5,-2.2 0.9,-3.1 0.4,-1 1,-1.8 1.7,-2.5 0.7,-0.7 1.6,-1 2.7,-1 1.2,0 2,0.4 2.4,1.1 0.4,0.7 0.6,1.6 0.5,2.6 -0.1,1 -0.2,2.1 -0.5,3.2 -0.3,1.1 -0.6,2.1 -0.9,2.9 -0.8,2.5 -1.6,4.8 -2.5,6.7 -0.9,1.9 -1.7,4 -2.4,6.2 -0.6,1.5 -0.8,2.9 -0.8,4.1 0,2.2 0.7,3.8 2,5 1.4,1.2 3,1.7 4.9,1.7 1.5,0 3,-0.5 4.4,-1.6 1.4,-1.1 2.7,-2.4 3.9,-3.9 1.2,-1.5 2.2,-3.1 3,-4.9 0.8,-1.7 1.4,-3.3 1.8,-4.6 0.1,-0.2 0.2,-0.6 0.3,-1.4 0.2,-0.8 0.3,-1.7 0.5,-2.7 0.2,-1 0.4,-2 0.6,-3.1 0.2,-1.1 0.4,-2 0.5,-2.7 0.2,-0.8 0.3,-1.6 0.5,-2.6 0.2,-1 0.5,-1.9 0.9,-2.8 0.4,-0.9 1,-1.6 1.6,-2.2 0.7,-0.6 1.5,-0.9 2.6,-0.9 1.3,0 2.1,0.4 2.6,1.1 0.4,0.7 0.6,1.6 0.6,2.6 -0.1,1 -0.2,2 -0.5,3 -0.3,1 -0.5,1.8 -0.7,2.4 -0.8,2.5 -1.6,4.7 -2.4,6.7 -0.8,2 -1.5,3.8 -2.2,5.2 -0.6,1.5 -1.1,2.6 -1.5,3.5 -0.4,0.9 -0.6,1.5 -0.6,1.8 0,2.6 0.6,4.5 1.7,5.6 1.1,1.1 2.3,1.7 3.6,1.7 2.2,0 3.9,-0.7 5.2,-2 1.3,-1.4 2.3,-3.9 2.9,-6.9 l 0.8,0 c 0.2,2.9 -0.1,5.3 -0.6,7.3 z"
     id="path15"
     inkscape:connector-curvature="0"
     style="fill:#2e3192" /><path
     style="fill:#ffffff;stroke-width:0.21897809"
     d="m 29.460784,86.232805 c -1.399413,-0.713579 -1.661786,-1.334091 -1.628189,-3.850673 0.04851,-3.633904 1.615682,-9.978008 5.44526,-22.043147 1.242411,-3.914234 2.462477,-7.784247 2.711259,-8.60003 0.263471,-0.863952 0.867844,-4.79539 1.447515,-9.416059 1.34017,-10.68275 1.715474,-12.27958 3.329166,-14.164816 0.92598,-1.0818 1.861449,-1.541722 3.135819,-1.541722 1.339777,0 2.084198,0.485376 2.528432,1.648585 0.333163,0.872375 0.351982,1.247022 0.146481,2.916069 -0.285766,2.320954 -2.068597,7.842754 -3.934886,12.18717 -2.082784,4.84838 -2.956599,7.758948 -2.958386,9.854015 -0.0031,3.592526 1.601275,5.748755 4.907596,6.595795 2.966363,0.759946 5.472611,-0.159436 8.372956,-3.071498 2.886346,-2.898009 4.982295,-6.336438 6.395855,-10.492475 0.292595,-0.860264 1.073361,-4.423548 1.735038,-7.918407 1.262378,-6.66766 1.426735,-7.344832 2.126869,-8.76305 1.079428,-2.186523 3.031863,-3.262551 4.971941,-2.740142 1.751751,0.471697 2.385607,2.171353 1.879912,5.0409 -0.538771,3.057242 -2.695134,9.116187 -5.805532,16.31238 l -1.798322,4.160584 0.08946,1.779013 c 0.155051,3.08342 1.721573,5.340716 4.17642,6.018055 1.215889,0.335487 3.633733,-0.05776 4.893182,-0.795848 1.829789,-1.072329 3.320018,-3.547548 4.05035,-6.727497 0.15905,-0.692518 0.41012,-1.259124 0.557932,-1.259124 0.449632,0 0.563706,1.38785 0.307588,3.742149 -0.433378,3.983676 -1.181733,6.087843 -2.971251,8.354334 -1.693493,2.144875 -3.549109,3.00514 -6.493537,3.010406 -1.163196,0.002 -1.683171,-0.117593 -2.606317,-0.599851 -2.466807,-1.288675 -3.404137,-3.883673 -3.232353,-8.948776 0.05467,-1.611789 0.06811,-2.930525 0.02987,-2.930525 -0.03823,0 -0.366153,0.654223 -0.72871,1.453828 -1.581331,3.487551 -5.030735,7.498531 -7.943606,9.236856 -2.278156,1.35954 -4.13096,1.870574 -6.839514,1.886443 -2.836653,0.01662 -3.804984,-0.323549 -5.318915,-1.868505 -1.936394,-1.976076 -2.809507,-5.113368 -2.568868,-9.23052 0.131755,-2.25422 0.119013,-2.354014 -0.300562,-2.354014 -0.367016,0 -0.580674,0.438083 -1.316027,2.698377 -1.523415,4.682601 -2.550928,9.552825 -3.41917,16.206234 -0.577855,4.428157 -0.569262,4.689374 0.24875,7.561491 0.937574,3.291913 0.607644,5.473867 -0.988977,6.540481 -0.892237,0.596052 -1.626197,0.627677 -2.634533,0.113514 z"
     id="path3765"
     inkscape:connector-curvature="0" /></svg>